HIERARCHY
ROOT root
{
	OFFSET	0	13.1	24.9
	CHANNELS 6  Xposition Yposition Zposition Xrotation Yrotation Zrotation
	JOINT spine_1
	{
		OFFSET	0	9.99999	0
		CHANNELS 3  Xrotation Yrotation Zrotation
		JOINT spine_2
		{
			OFFSET	0	112	-10
			CHANNELS 3  Xrotation Yrotation Zrotation
			JOINT spine_3
			{
				OFFSET	0	206.5	19.3
				CHANNELS 3  Xrotation Yrotation Zrotation
				JOINT spine_4
				{
					OFFSET	0	110.4	14.6
					CHANNELS 3  Xrotation Yrotation Zrotation
					JOINT neck_1
					{
						OFFSET	0	71.8	-50.3
						CHANNELS 3  Xrotation Yrotation Zrotation
						JOINT neck_2
						{
							OFFSET	0	86.2	-25.8
							CHANNELS 3  Xrotation Yrotation Zrotation
							JOINT head_ee
							{
								OFFSET	0	179.8	-8.7
								CHANNELS 3  Xrotation Yrotation Zrotation
								End Site
								{
									OFFSET	1	0	0
								}
							}
						}
					}
					JOINT left_clavicle
					{
						OFFSET	-43.2	22.4	-70.8
						CHANNELS 3  Xrotation Yrotation Zrotation
						JOINT left_shoulder
						{
							OFFSET	-93.9	-5.79999	48.7
							CHANNELS 3  Xrotation Yrotation Zrotation
							JOINT left_elbow
							{
								OFFSET	-291.4	-30.8	15.2
								CHANNELS 3  Xrotation Yrotation Zrotation
								JOINT left_lowarm_twist
								{
									OFFSET	-110.7	-3.89999	13.6
									CHANNELS 3  Xrotation Yrotation Zrotation
									JOINT left_hand
									{
										OFFSET	-110.7	-3.89999	13.6
										CHANNELS 3  Xrotation Yrotation Zrotation
										JOINT left_ee
										{
											OFFSET	-80.8	-5.10001	12.1
											CHANNELS 3  Xrotation Yrotation Zrotation
											End Site
											{
												OFFSET	1	0	0
											}
										}
									}
								}
							}
						}
					}
					JOINT right_clavicle
					{
						OFFSET	43.2	22.4	-70.8
						CHANNELS 3  Xrotation Yrotation Zrotation
						JOINT right_shoulder
						{
							OFFSET	93.9	-5.79999	48.7
							CHANNELS 3  Xrotation Yrotation Zrotation
							JOINT right_elbow
							{
								OFFSET	291.4	-30.8	15.2
								CHANNELS 3  Xrotation Yrotation Zrotation
								JOINT right_lowarm_twist
								{
									OFFSET	110.7	-3.89999	13.6
									CHANNELS 3  Xrotation Yrotation Zrotation
									JOINT right_hand
									{
										OFFSET	110.7	-3.89999	13.6
										CHANNELS 3  Xrotation Yrotation Zrotation
										JOINT right_ee
										{
											OFFSET	80.8	-5.10001	12.1
											CHANNELS 3  Xrotation Yrotation Zrotation
											End Site
											{
												OFFSET	1	0	0
											}
										}
									}
								}
							}
						}
					}
				}
			}
		}
	}
	JOINT left_hip
	{
		OFFSET	-82.8	-127.5	0.300001
		CHANNELS 3  Xrotation Yrotation Zrotation
		JOINT left_knee
		{
			OFFSET	-28.2	-396.7	2.2
			CHANNELS 3  Xrotation Yrotation Zrotation
			JOINT left_ankle
			{
				OFFSET	-11.7	-411.3	35.4
				CHANNELS 3  Xrotation Yrotation Zrotation
				JOINT left_toes
				{
					OFFSET	0	-60	-88.6
					CHANNELS 3  Xrotation Yrotation Zrotation
					JOINT left_foot_ee
					{
						OFFSET	-22.5	-16.5	-42.2
						CHANNELS 3  Xrotation Yrotation Zrotation
						End Site
						{
							OFFSET	1	0	0
						}
					}
				}
			}
		}
	}
	JOINT right_hip
	{
		OFFSET	82.8	-127.5	0.300001
		CHANNELS 3  Xrotation Yrotation Zrotation
		JOINT right_knee
		{
			OFFSET	28.2	-396.7	2.2
			CHANNELS 3  Xrotation Yrotation Zrotation
			JOINT right_ankle
			{
				OFFSET	11.7	-411.3	35.4
				CHANNELS 3  Xrotation Yrotation Zrotation
				JOINT right_toes
				{
					OFFSET	0	-60	-88.6
					CHANNELS 3  Xrotation Yrotation Zrotation
					JOINT right_foot_ee
					{
						OFFSET	22.5	-16.5	-42.2
						CHANNELS 3  Xrotation Yrotation Zrotation
						End Site
						{
							OFFSET	1	0	0
						}
					}
				}
			}
		}
	}
}
MOTION
Frames: 16
Frame Time: 0.02
2675.41 713.361 -801.02 2.83721 59.1395 6.25853 -3.43172 -0.632977 -3.22619 -3.42603 -0.426515 -3.25988 -3.39301 0.461882 -3.25506 -3.40779 -0.0577035 -3.28713 4.94854 14.3675 5.59113 5.38606 19.8244 7.01789 -0.0 0.0 -0.0 7.56372 -0.76279 14.7197 -14.0996 -12.4672 71.5629 0.342079 -9.61795 0.0287793 23.8626 0.214942 -3.0187 1.22633 12.5794 13.0284 -0.0 0.0 -0.0 4.59245 12.3518 -8.1749 16.0421 27.5419 -58.8447 1.3164 33.1071 -0.39129 25.9759 -0.173101 3.28539 -0.373472 2.37778 3.51438 0.0 0.0 0.0 14.5196 -31.8346 -13.5814 -0.850747 0.0340942 0.126105 -6.87065 10.7853 1.02022 4.40227 -0.0 -0.0 -0.0 0.0 -0.0 -13.2664 10.7321 -7.81297 -11.9012 -0.304225 -1.79781 27.6562 -10.5575 3.64198 19.6129 -0.0 -0.0 0.0 0.0 0.0 
2650.39 716.905 -804.701 3.87854 58.7769 5.86498 -3.59942 -0.671978 -3.37362 -3.5932 -0.456072 -3.40949 -3.55617 0.48318 -3.40576 -3.57235 -0.0604293 -3.43929 4.73786 14.5929 6.30646 5.16964 19.6413 7.85795 -0.0 0.0 -0.0 7.77277 -2.24307 15.1488 -12.4357 -12.7613 71.3328 0.349542 -9.82374 0.0300394 24.0937 0.210845 -3.04794 1.20001 12.8631 12.9589 -0.0 0.0 -0.0 4.61167 12.1201 -8.2319 14.3798 26.8128 -58.5718 1.26072 31.9844 -0.361334 25.5062 -0.183251 3.22625 -0.372364 2.07609 3.37745 0.0 0.0 0.0 14.3952 -32.1272 -13.0481 -4.04311 0.145224 0.603371 -7.05545 11.1004 1.04821 5.28826 -0.0 -0.0 -0.0 0.0 -0.0 -13.1921 12.117 -7.6706 -14.4424 -0.320432 -2.18734 26.6922 -10.9226 3.53488 19.7782 -0.0 -0.0 0.0 0.0 0.0 
2626.72 719.289 -808.187 4.10861 58.9926 5.95467 -3.59092 -0.75084 -3.31378 -3.58497 -0.538575 -3.35478 -3.54364 0.388054 -3.37548 -3.55951 -0.149593 -3.3944 4.95862 15.1283 7.06993 5.41348 19.8328 8.73631 -0.0 0.0 -0.0 7.7084 -1.91509 15.017 -11.5588 -12.8999 70.7186 0.346177 -9.73098 0.029468 24.1814 0.209259 -3.05903 1.15605 13.2509 12.8127 -0.0 0.0 -0.0 4.36941 11.4053 -7.77406 12.3205 26.0064 -58.3697 1.22111 31.1687 -0.340593 25.1318 -0.190993 3.17905 -0.355147 2.15749 3.29666 0.0 0.0 0.0 14.3013 -32.1094 -12.4342 -5.46308 0.186068 0.817459 -8.34228 10.4991 1.2414 5.46221 -0.0 -0.0 -0.0 0.0 -0.0 -12.9285 10.608 -7.46663 -16.5413 -0.320784 -2.50935 28.0203 -11.8494 3.68968 20.4133 -0.0 -0.0 0.0 0.0 0.0 
2598.98 722.284 -813.801 4.44884 58.8162 5.83493 -3.75306 -0.782346 -3.31567 -3.74712 -0.569898 -3.35867 -3.70354 0.368359 -3.38667 -3.7195 -0.170806 -3.40234 6.33722 15.3416 6.68746 6.82827 20.1396 8.23186 -0.0 0.0 -0.0 7.71458 -2.2806 15.0304 -11.1042 -12.9028 70.3222 0.351286 -9.87178 0.0303376 24.5745 0.201946 -3.10871 1.06748 13.1949 12.2214 -0.0 0.0 -0.0 4.15128 10.8612 -7.3569 10.867 25.2214 -59.026 1.15576 29.7915 -0.307443 24.9815 -0.194013 3.1601 -0.428046 0.891663 3.24256 0.0 0.0 0.0 14.7053 -32.1993 -11.5188 -8.78607 0.260819 1.32185 -8.92531 12.7428 1.33198 7.12198 -0.0 -0.0 -0.0 0.0 -0.0 -12.5535 10.9811 -7.41599 -18.712 -0.308742 -2.84217 27.7303 -12.3456 3.66035 20.2613 -0.0 -0.0 0.0 0.0 0.0 
2572.66 725.023 -821.772 5.65166 58.4822 4.7169 -3.76156 -0.822959 -3.396 -3.75535 -0.605327 -3.44141 -3.70824 0.357107 -3.4759 -3.72505 -0.195984 -3.48868 7.8895 16.0154 7.0182 8.43001 20.5198 8.57003 -0.0 0.0 -0.0 7.85875 -5.12679 15.315 -8.98013 -13.0459 68.9356 0.402294 -11.2707 0.0396961 25.9506 0.17366 -3.28222 1.08199 14.2235 12.6819 -0.0 0.0 -0.0 4.05348 10.5639 -7.17445 9.45271 24.6208 -59.9196 1.02908 27.0109 -0.247171 23.6341 -0.218874 2.98978 -0.361083 1.78084 3.175 0.0 0.0 0.0 13.5306 -32.1021 -11.0368 -10.386 0.286345 1.56601 -6.74859 12.8404 1.0039 6.86593 -0.0 -0.0 -0.0 0.0 -0.0 -12.2907 10.7548 -7.42941 -20.8851 -0.284067 -3.17468 29.3658 -12.3915 3.84212 20.7768 -0.0 -0.0 0.0 0.0 0.0 
2539.6 727.014 -836.329 7.4962 58.1505 2.68143 -3.85429 -0.711843 -3.15087 -3.84891 -0.510007 -3.18972 -3.81126 0.385946 -3.20708 -3.82559 -0.125124 -3.22778 10.1944 17.0247 7.46174 10.7984 21.0616 9.06126 -0.0 0.0 -0.0 7.92603 -8.55952 15.3962 -7.16953 -13.1949 67.7611 0.379371 -10.6436 0.0353391 27.1365 0.145946 -3.43116 0.379362 14.4796 8.31528 -0.0 0.0 -0.0 3.85035 10.2021 -6.77817 6.55789 23.9781 -61.7201 0.923331 24.5786 -0.201142 22.7722 -0.232673 2.88055 -0.336458 1.45677 2.87081 0.0 0.0 0.0 13.2339 -32.4901 -8.85519 -16.9272 0.319565 2.56856 4.41018 16.9584 -0.645505 10.9293 -0.0 -0.0 -0.0 0.0 -0.0 -11.0819 17.0989 -8.30851 -24.6995 -0.210334 -3.75525 27.4239 -13.8898 3.63729 22.709 -0.0 -0.0 0.0 0.0 0.0 
2513.29 732.971 -846.566 8.87047 58.1242 1.54167 -3.94035 -0.595377 -3.2091 -3.93471 -0.390078 -3.24043 -3.9033 0.520576 -3.22206 -3.91778 0.00546031 -3.2638 9.41268 17.0855 8.16095 9.99276 20.7685 9.92148 -0.0 0.0 -0.0 7.89894 -8.02192 15.3518 -5.41135 -14.5233 65.5038 0.454609 -12.6915 0.050557 27.6964 0.131789 -3.50128 0.673934 13.5324 9.82426 -0.0 0.0 -0.0 3.80259 9.99566 -6.69426 3.94393 23.179 -62.1302 0.838072 22.5459 -0.167055 22.1047 -0.24223 2.79582 0.163885 1.72733 -0.369272 0.0 0.0 0.0 11.4685 -32.818 -7.98434 -19.4252 0.302034 2.9514 7.49401 19.9511 -1.0977 11.6741 -0.0 -0.0 -0.0 0.0 -0.0 -8.08184 13.8494 -8.81605 -32.1588 0.0446586 -4.87083 31.2399 -13.5573 4.05415 22.5261 -0.0 -0.0 0.0 0.0 0.0 
2487.55 736.31 -861.086 12.9807 58.8885 -2.45308 -4.1239 -0.462394 -2.98214 -4.119 -0.271783 -3.00549 -4.0967 0.579423 -2.96164 -4.10893 0.104637 -3.01593 7.46485 15.826 9.63407 7.9176 17.9293 11.6964 -0.0 0.0 -0.0 7.94287 -7.86711 15.4481 -4.70987 -16.4306 62.2509 0.618487 -17.0341 0.0926227 28.067 0.122042 -3.54762 0.576119 9.88512 7.81099 -0.0 0.0 -0.0 3.74333 10.0259 -6.56893 0.735117 22.281 -63.1758 0.749892 20.3787 -0.134785 22.0407 -0.243094 2.78769 0.156744 -0.846165 -1.40064 0.0 0.0 0.0 7.61933 -33.4196 -6.70333 -19.0751 0.305497 2.89779 11.6501 24.1525 -1.71577 12.4335 -0.0 -0.0 -0.0 0.0 -0.0 -1.10448 18.4413 -11.7972 -45.0932 0.82217 -6.69607 33.4287 -16.4661 4.31808 25.3094 -0.0 -0.0 0.0 0.0 0.0 
2473.55 739.403 -865.396 14.3101 58.8032 -3.70547 -4.22178 -0.340815 -2.97037 -4.21688 -0.151198 -2.98602 -4.20129 0.695209 -2.90796 -4.21302 0.22744 -2.98119 5.48226 15.0168 10.3418 5.9016 16.5493 12.4903 -0.0 0.0 -0.0 7.82514 -6.47738 15.2271 -2.79888 -18.7783 59.3819 0.752004 -20.4314 0.135521 27.9748 0.124494 -3.53611 -0.0326745 8.42719 3.291 -0.0 0.0 -0.0 3.71657 10.6985 -6.46217 -0.818165 22.01 -63.8716 0.666354 18.2677 -0.107138 22.7343 -0.233243 2.87573 0.320028 -1.60205 -2.80224 0.0 0.0 0.0 6.06724 -34.4183 -6.83884 -19.8177 0.297763 3.01147 13.5585 26.4411 -2.00927 12.6066 -0.0 -0.0 -0.0 0.0 -0.0 2.0583 19.0385 -12.9979 -51.6933 1.37282 -7.54938 33.8327 -19.0912 4.40243 26.8241 -0.0 -0.0 0.0 0.0 0.0 
2451.61 751.062 -866.26 17.4263 59.4653 -6.99652 -4.71185 -0.599977 -2.8103 -4.70756 -0.420009 -2.84275 -4.6784 0.420278 -2.84271 -4.68968 -0.0337571 -2.87339 4.20281 13.8416 10.4615 4.57726 14.8127 12.5762 -0.0 0.0 -0.0 8.88564 -5.58293 17.4625 -0.557708 -18.6217 56.807 0.856849 -22.999 0.174323 27.4735 0.137506 -3.47339 -1.05135 5.8664 -4.43147 -0.0 0.0 -0.0 4.17438 10.3658 -7.4407 -3.56202 21.1337 -62.6304 0.611031 16.8405 -0.0904508 22.1571 -0.241515 2.80248 0.182892 -4.05399 -2.9049 0.0 0.0 0.0 1.80615 -34.3649 -6.21814 -14.9725 0.321635 2.26866 12.3192 26.8826 -1.83811 12.4742 -0.0 -0.0 -0.0 0.0 -0.0 6.8883 22.0559 -15.1759 -57.1049 1.89561 -8.19882 32.8672 -20.9613 4.33629 27.564 -0.0 -0.0 0.0 0.0 0.0 
2438.98 750.746 -867.083 18.4246 58.9158 -8.56066 -4.96972 -0.470316 -2.69007 -4.96574 -0.298251 -2.71452 -4.94402 0.512281 -2.6824 -4.95405 0.0823822 -2.7296 1.78858 12.6715 10.601 2.13643 13.3656 12.6585 -0.0 0.0 -0.0 8.99802 -5.14527 17.6982 1.33977 -20.3401 55.3266 1.03783 -27.2075 0.251155 27.4569 0.137929 -3.4713 -1.13966 2.09557 -6.6984 -0.0 0.0 -0.0 3.86278 11.9035 -6.67483 -5.12062 21.7002 -63.2575 0.577381 15.9616 -0.0809489 21.7094 -0.247424 2.74559 0.496481 -4.26593 -5.06296 0.0 0.0 0.0 1.59439 -33.5896 -4.84437 -15.1465 0.321865 2.29536 12.888 27.3971 -1.92541 13.7215 -0.0 -0.0 -0.0 0.0 -0.0 9.70704 21.54 -15.3516 -59.7723 2.17545 -8.50032 33.7202 -23.7371 4.49117 28.1487 -0.0 -0.0 0.0 0.0 0.0 
2414.99 754.094 -870.954 18.5115 58.212 -8.63838 -4.93172 -0.475848 -2.67562 -4.92779 -0.30469 -2.70046 -4.90593 0.500208 -2.67118 -4.91588 0.07223 -2.71662 1.26365 12.0678 9.96272 1.57578 12.9909 11.9182 -0.0 0.0 -0.0 9.16973 -4.7858 18.0576 2.64602 -20.8956 54.0288 1.12013 -29.0241 0.289945 27.3851 0.139744 -3.46231 -1.4509 0.464123 -9.52583 -0.0 0.0 -0.0 3.75083 11.2773 -6.48903 -6.97609 21.4842 -63.1256 0.533361 14.8002 -0.0692729 21.3179 -0.252226 2.69581 0.462732 -5.46991 -5.32595 0.0 0.0 0.0 -0.790587 -31.0962 -4.60795 -12.9816 0.313227 1.96334 15.352 27.954 -2.28214 14.1691 -0.0 -0.0 -0.0 0.0 -0.0 12.7171 23.357 -16.1077 -61.3625 2.34889 -8.67381 32.5069 -24.1338 4.36896 28.0956 -0.0 -0.0 0.0 0.0 0.0 
2402.34 756.457 -869.243 18.2937 57.1805 -8.4381 -4.7304 -0.547126 -2.86828 -4.7259 -0.36358 -2.89725 -4.69903 0.491181 -2.87838 -4.71059 0.0306329 -2.91979 1.08248 12.1881 9.61334 1.38777 13.5516 11.5498 -0.0 0.0 -0.0 9.52072 -4.41899 18.7938 3.7632 -20.8011 52.9443 1.23352 -31.4256 0.347036 27.7128 0.131365 -3.50333 -1.76493 -0.545368 -12.1241 -0.0 0.0 -0.0 3.70168 11.6112 -6.36018 -8.71494 21.3273 -62.8802 0.50151 13.9519 -0.0613644 19.949 -0.266341 2.52154 0.19022 -7.75627 -4.46411 0.0 0.0 0.0 -3.45766 -30.3647 -4.42637 -9.51901 0.273359 1.43362 15.9382 28.0898 -2.36638 14.2732 -0.0 -0.0 -0.0 0.0 -0.0 14.8984 22.9123 -13.1853 -61.6325 2.37883 -8.7028 32.3239 -22.0595 4.30058 27.464 -0.0 -0.0 0.0 0.0 0.0 
2387.09 758.494 -865.232 14.804 56.112 -5.94287 -4.46824 -0.5399 -2.70976 -4.46423 -0.366443 -2.7386 -4.43936 0.430064 -2.72934 -4.44976 -0.0062099 -2.76298 0.390087 12.4156 8.98973 0.684309 14.6715 10.9129 -0.0 0.0 -0.0 9.6979 -4.75904 19.1743 5.31137 -21.2846 51.1804 1.30905 -32.9604 0.38728 28.4718 0.111054 -3.59816 -1.89679 -2.06605 -13.7322 -0.0 0.0 -0.0 3.62698 11.7037 -6.19649 -9.95842 21.2831 -62.4696 0.515956 14.3374 -0.0648946 18.6815 -0.275694 2.35992 -0.00571825 -9.71206 -3.98897 0.0 0.0 0.0 -4.61055 -27.1776 -4.27078 -2.82476 0.105955 0.420517 14.0533 28.6045 -2.10761 13.2819 -0.0 -0.0 -0.0 0.0 -0.0 18.5033 24.7055 -12.2103 -60.6413 2.26963 -8.59572 31.9166 -21.193 4.23808 27.1427 -0.0 -0.0 0.0 0.0 0.0 
2367.82 760.904 -868.662 13.9472 54.6371 -5.35714 -4.33732 -0.52275 -2.64004 -4.33351 -0.35376 -2.66793 -4.3102 0.416057 -2.65893 -4.32007 -0.00893492 -2.69125 -0.188296 12.4861 8.23099 0.087598 15.5824 10.131 -0.0 0.0 -0.0 9.80477 -4.78487 19.4018 6.50897 -21.2131 49.6179 1.37518 -34.2617 0.42389 28.7096 0.104432 -3.62782 -2.01295 -2.76962 -14.8625 -0.0 0.0 -0.0 3.45659 11.2982 -5.87264 -11.0818 21.1141 -62.5218 0.517458 14.3775 -0.0652671 18.0616 -0.278966 2.28081 -0.134759 -11.0939 -3.72486 0.0 0.0 0.0 -7.19977 -24.6946 -3.95762 1.80738 -0.0786352 -0.266182 12.6702 28.8891 -1.91268 12.5491 -0.0 -0.0 -0.0 0.0 -0.0 20.9928 23.8994 -12.5707 -58.2252 2.01142 -8.32701 31.5418 -20.622 4.18595 26.9113 -0.0 -0.0 0.0 0.0 0.0 
2341.77 760.252 -869.886 13.6372 52.9478 -5.55373 -4.16289 -0.526549 -2.58942 -4.15923 -0.360769 -2.61765 -4.13632 0.387143 -2.61388 -4.14585 -0.0303796 -2.6422 0.0165504 12.5539 7.4742 0.283609 16.2782 9.31513 -0.0 0.0 -0.0 9.92848 -4.92891 19.6676 7.08691 -21.7588 48.2395 1.41295 -34.9874 0.44535 28.9101 0.0987518 -3.65281 -2.05917 -3.27261 -15.4171 -0.0 0.0 -0.0 3.09048 10.2774 -5.19356 -12.454 21.0371 -62.1332 0.484496 13.4962 -0.0573279 17.2553 -0.281941 2.17786 -0.109127 -11.7986 -4.17453 0.0 0.0 0.0 -9.37236 -22.3645 -2.20803 4.46504 -0.209452 -0.652873 11.9168 29.0154 -1.8049 12.2029 -0.0 -0.0 -0.0 0.0 -0.0 23.5809 23.2992 -13.2097 -56.335 1.8175 -8.10944 30.7591 -19.7787 4.08458 26.7414 -0.0 -0.0 0.0 0.0 0.0 
